<svg height="512" viewBox="0 0 128 128" width="512" xmlns="http://www.w3.org/2000/svg"><g><path d="m96.023 46.33a1.75 1.75 0 1 0 -3.5.167l.273 5.709a1.749 1.749 0 0 0 1.747 1.666h.084a1.75 1.75 0 0 0 1.673-1.833z"/><path d="m99.625 10.75a7.759 7.759 0 0 0 -7.75 7.75 1.75 1.75 0 0 0 3.5 0 4.255 4.255 0 0 1 4.25-4.25h5.275a1.75 1.75 0 0 0 0-3.5z"/><path d="m121.5 10.75h-9.223a1.75 1.75 0 0 0 0 3.5h9.223a1.75 1.75 0 0 0 0-3.5z"/><path d="m119.09 8.25h2.41a1.75 1.75 0 0 0 0-3.5h-2.41a1.75 1.75 0 0 0 0 3.5z"/><path d="m87.625 20.25a1.75 1.75 0 0 0 1.75-1.75 10.261 10.261 0 0 1 10.25-10.25h9.84a1.75 1.75 0 0 0 0-3.5h-9.84a13.765 13.765 0 0 0 -13.75 13.75 1.75 1.75 0 0 0 1.75 1.75z"/><path d="m121.5 113.75h-4.25v-38.06a1.75 1.75 0 0 0 -1.75-1.75h-12.152l-2.01-42.152a1.75 1.75 0 0 0 1.037-1.6v-6a1.75 1.75 0 0 0 -1.75-1.75h-20a1.75 1.75 0 0 0 -1.75 1.75v6a1.75 1.75 0 0 0 1.037 1.6l-2.012 42.152h-23.84v-8.19h4.248a1.751 1.751 0 0 0 1.75-1.75v-6a1.751 1.751 0 0 0 -1.75-1.75h-51.808a1.751 1.751 0 0 0 -1.75 1.75v6a1.751 1.751 0 0 0 1.75 1.75h4.25v48h-4.25a1.751 1.751 0 0 0 -1.75 1.75v6a1.751 1.751 0 0 0 1.75 1.75h115a1.75 1.75 0 0 0 1.75-1.75v-6a1.75 1.75 0 0 0 -1.75-1.75zm-39.125-87.808h16.5v2.5h-16.5zm1.034 6h14.432l2 42h-18.435zm30.341 45.5v36.31h-59.69v-36.312zm-105.5-17.692h48.308v2.5h-48.308zm6 6h36.31v48h-10.406v-18.25a1.751 1.751 0 0 0 -1.75-1.75h-12a1.75 1.75 0 0 0 -1.75 1.75v18.25h-10.404zm22.4 48h-8.5v-16.5h8.5zm83.1 6h-111.5v-2.5h111.5z"/><path d="m29.4 88.417h6a1.751 1.751 0 0 0 1.75-1.75v-6a1.75 1.75 0 0 0 -1.75-1.75h-6a1.749 1.749 0 0 0 -1.75 1.75v6a1.75 1.75 0 0 0 1.75 1.75zm1.75-6h2.5v2.5h-2.5z"/><path d="m61.308 100.345h6a1.75 1.75 0 0 0 1.75-1.75v-6a1.751 1.751 0 0 0 -1.75-1.75h-6a1.75 1.75 0 0 0 -1.75 1.75v6a1.749 1.749 0 0 0 1.75 1.75zm1.75-6h2.5v2.5h-2.5z"/><path d="m80.9 100.345h6a1.749 1.749 0 0 0 1.75-1.75v-6a1.75 1.75 0 0 0 -1.75-1.75h-6a1.75 1.75 0 0 0 -1.75 1.75v6a1.749 1.749 0 0 0 1.75 1.75zm1.75-6h2.5v2.5h-2.5z"/><path d="m100.5 100.345h6a1.749 1.749 0 0 0 1.75-1.75v-6a1.75 1.75 0 0 0 -1.75-1.75h-6a1.75 1.75 0 0 0 -1.75 1.75v6a1.749 1.749 0 0 0 1.75 1.75zm1.75-6h2.5v2.5h-2.5z"/></g></svg>
